<svg width="18" height="18" viewBox="0 0 18 18" fill="none" xmlns="http://www.w3.org/2000/svg">
<path d="M11.1583 5.66663L8.99996 7.82496L6.84163 5.66663L5.66663 6.84163L7.82496 8.99996L5.66663 11.1583L6.84163 12.3333L8.99996 10.175L11.1583 12.3333L12.3333 11.1583L10.175 8.99996L12.3333 6.84163L11.1583 5.66663ZM8.99996 0.666626C4.39163 0.666626 0.666626 4.39163 0.666626 8.99996C0.666626 13.6083 4.39163 17.3333 8.99996 17.3333C13.6083 17.3333 17.3333 13.6083 17.3333 8.99996C17.3333 4.39163 13.6083 0.666626 8.99996 0.666626ZM8.99996 15.6666C5.32496 15.6666 2.33329 12.675 2.33329 8.99996C2.33329 5.32496 5.32496 2.33329 8.99996 2.33329C12.675 2.33329 15.6666 5.32496 15.6666 8.99996C15.6666 12.675 12.675 15.6666 8.99996 15.6666Z" fill="#808FC0" stroke="#F2F3F6" stroke-width="0.2"/>
</svg>
